<?xml version="1.0" encoding="UTF-8" standalone="no"?>
<!DOCTYPE svg PUBLIC "-//W3C//DTD SVG 1.1//EN" "http://www.w3.org/Graphics/SVG/1.1/DTD/svg11.dtd">
<svg width="100%" height="100%" viewBox="0 0 66 103" version="1.1" xmlns="http://www.w3.org/2000/svg" xmlns:xlink="http://www.w3.org/1999/xlink" xml:space="preserve" xmlns:serif="http://www.serif.com/" style="fill-rule:evenodd;clip-rule:evenodd;stroke-linejoin:round;stroke-miterlimit:2;">
    <g transform="matrix(1,0,0,1,-31,-12.5)">
        <g id="no-permission" serif:id="no permission" transform="matrix(1,0,0,1,0,1.5)">
            <path d="M64,11C82.213,11 97,25.787 97,44C97,62.213 86.842,78.247 64,114C41.208,78.215 31,62.213 31,44C31,25.787 45.787,11 64,11ZM64,22.18C76.04,22.18 85.815,31.954 85.815,43.994C85.815,56.034 76.04,65.809 64,65.809C51.96,65.809 42.185,56.034 42.185,43.994C42.185,31.954 51.96,22.18 64,22.18ZM55.934,43.08C54.07,43.448 52.662,45.093 52.662,47.065L52.662,55.188C52.662,57.43 54.482,59.25 56.724,59.25L71.276,59.25C73.518,59.25 75.338,57.43 75.338,55.188L75.338,47.065C75.338,45.142 73.999,43.53 72.203,43.11L72.149,36.847L72.032,36.965C72.107,36.835 72.149,36.724 72.149,36.636C72.149,36.506 72.142,36.395 72.129,36.302C71.835,32.079 68.312,28.738 64.015,28.738C59.654,28.738 56.091,32.178 55.889,36.49C55.851,37.309 56.149,38.108 56.715,38.701C57.28,39.293 58.062,39.628 58.88,39.63L58.88,39.63C57.233,39.63 55.894,38.302 55.88,36.655L55.934,43.08ZM69.202,43.003L58.934,43.003L58.88,36.63L58.886,36.63C59.013,33.908 61.262,31.738 64.015,31.738C66.767,31.738 69.016,33.908 69.143,36.63L69.149,36.63L69.149,36.873L69.202,43.003Z" style="fill:rgb(57,47,90);"/>
        </g>
    </g>
</svg>
