<?xml version="1.0" encoding="UTF-8" standalone="no"?>
<!DOCTYPE svg PUBLIC "-//W3C//DTD SVG 1.1//EN" "http://www.w3.org/Graphics/SVG/1.1/DTD/svg11.dtd">
<svg width="100%" height="100%" viewBox="0 0 128 128" version="1.1" xmlns="http://www.w3.org/2000/svg" xmlns:xlink="http://www.w3.org/1999/xlink" xml:space="preserve" xmlns:serif="http://www.serif.com/" style="fill-rule:evenodd;clip-rule:evenodd;stroke-linejoin:round;stroke-miterlimit:2;">
    <g transform="matrix(1,0,0,1,-1.42109e-14,20.9437)">
        <path d="M11.113,64C11.113,70.075 16.038,75 22.113,75L105.887,75C111.962,75 116.887,70.075 116.887,64C116.887,34.811 93.189,11.113 64,11.113C34.811,11.113 11.113,34.811 11.113,64ZM69.5,22.471L69.5,30.407C69.5,33.443 67.036,35.907 64,35.907C60.964,35.907 58.5,33.443 58.5,30.407L58.5,22.471C44.773,24.274 33.129,32.736 26.924,44.503L30.407,44.503C33.443,44.503 35.907,46.968 35.907,50.003C35.907,53.039 33.443,55.503 30.407,55.503L22.977,55.503C22.41,58.248 22.113,61.089 22.113,64L52.169,64L35.018,44.626C33.006,42.353 33.218,38.874 35.49,36.862C37.763,34.85 41.242,35.062 43.254,37.335L66.86,64L105.887,64C105.887,61.089 105.59,58.248 105.023,55.503L97.593,55.503C94.557,55.503 92.093,53.039 92.093,50.003C92.093,46.968 94.557,44.503 97.593,44.503L101.076,44.503C94.871,32.737 83.227,24.275 69.5,22.471Z" style="fill:rgb(57,47,90);"/>
    </g>
</svg>
