<?xml version="1.0" encoding="UTF-8" standalone="no"?>
<!DOCTYPE svg PUBLIC "-//W3C//DTD SVG 1.1//EN" "http://www.w3.org/Graphics/SVG/1.1/DTD/svg11.dtd">
<svg width="100%" height="100%" viewBox="0 0 122 120" version="1.1" xmlns="http://www.w3.org/2000/svg" xmlns:xlink="http://www.w3.org/1999/xlink" xml:space="preserve" xmlns:serif="http://www.serif.com/" style="fill-rule:evenodd;clip-rule:evenodd;stroke-linejoin:round;stroke-miterlimit:2;">
    <g transform="matrix(1,0,0,1,-3.38654,-4.33205)">
        <path d="M64,4.332C30.52,4.332 3.387,31.095 3.387,64C3.387,96.905 30.52,123.668 64,123.668C97.48,123.668 124.613,96.905 124.613,64C124.613,31.095 97.48,4.332 64,4.332ZM25.517,33.295L94.555,102.334C86.125,108.809 75.514,112.668 64,112.668C36.644,112.668 14.387,90.887 14.387,64C14.387,52.355 18.561,41.668 25.517,33.295ZM39.342,54.899L30.713,58.656C28.714,59.526 27.418,61.495 27.409,63.676C27.399,65.856 28.679,67.836 30.67,68.723L50.345,77.488C50.345,77.488 59.286,97.349 59.286,97.349C60.179,99.334 62.159,100.605 64.335,100.591C66.511,100.578 68.475,99.283 69.344,97.287L73.101,88.658L39.342,54.899ZM102.483,94.705L33.445,25.666C41.875,19.191 52.486,15.332 64,15.332C91.356,15.332 113.613,37.113 113.613,64C113.613,75.645 109.439,86.332 102.483,94.705ZM61.017,45.461L82.539,66.983L93.556,41.682C94.459,39.61 94.001,37.196 92.402,35.598C90.804,33.999 88.39,33.541 86.318,34.444L61.017,45.461Z" style="fill:rgb(57,47,90);"/>
    </g>
</svg>
