<?xml version="1.0" standalone="no"?>
<!DOCTYPE svg PUBLIC "-//W3C//DTD SVG 20010904//EN"
 "http://www.w3.org/TR/2001/REC-SVG-20010904/DTD/svg10.dtd">
<svg version="1.0" xmlns="http://www.w3.org/2000/svg"
 width="1316.000000pt" height="1316.000000pt" viewBox="0 0 1316.000000 1316.000000"
 preserveAspectRatio="xMidYMid meet">
<metadata>
Created by potrace 1.14, written by Peter Selinger 2001-2017
</metadata>
<g transform="translate(0.000000,1316.000000) scale(0.100000,-0.100000)"
fill="#000000" stroke="none">
<path d="M3079 13146 c-2 -2 -38 -7 -79 -10 -626 -54 -1245 -303 -1745 -701
-200 -160 -346 -307 -554 -560 -58 -71 -199 -282 -244 -365 -16 -30 -36 -62
-43 -70 -7 -8 -12 -17 -12 -20 0 -3 -22 -50 -49 -105 -149 -298 -270 -694
-308 -1010 -4 -27 -8 -60 -10 -73 -16 -99 -19 -666 -19 -3642 0 -2967 3 -3535
19 -3650 2 -14 6 -50 10 -80 21 -176 96 -481 163 -665 59 -159 73 -192 140
-330 225 -459 520 -821 948 -1163 16 -13 47 -36 69 -50 22 -15 42 -29 45 -33
9 -11 129 -89 136 -89 4 0 16 -7 25 -16 26 -24 175 -106 304 -168 295 -143
642 -249 955 -292 24 -3 56 -8 70 -10 14 -2 66 -7 115 -11 114 -10 7009 -11
7130 -1 50 4 99 10 110 12 11 2 47 7 80 11 33 3 78 10 100 15 22 5 54 11 72
14 286 51 712 209 971 363 41 24 75 43 78 43 10 0 253 168 326 226 406 322
715 707 934 1159 94 196 173 405 217 580 26 99 37 149 42 173 2 13 6 31 9 40
3 9 7 39 11 66 3 27 8 52 10 55 1 3 6 35 10 71 4 36 9 74 11 84 15 80 18 645
18 3621 0 2993 -3 3583 -18 3660 -2 12 -7 48 -11 80 -4 33 -11 78 -15 100 -5
22 -12 60 -15 85 -30 206 -174 631 -284 840 -119 224 -148 273 -267 440 -140
197 -311 388 -494 552 -87 78 -335 268 -350 268 -5 0 -10 3 -10 8 0 4 -9 12
-19 17 -11 6 -64 37 -118 70 -135 83 -345 185 -502 245 -137 52 -370 124 -437
134 -22 4 -52 11 -69 16 -35 10 -195 37 -275 45 -30 3 -75 9 -100 13 -46 7
-7074 15 -7081 8z"/>
</g>
</svg>
